<?xml version="1.0" encoding="utf-8"?>
<!-- Generator: Adobe Illustrator 18.0.0, SVG Export Plug-In . SVG Version: 6.00 Build 0)  -->
<!DOCTYPE svg PUBLIC "-//W3C//DTD SVG 1.1//EN" "http://www.w3.org/Graphics/SVG/1.1/DTD/svg11.dtd">
<svg version="1.1" id="Layer_1" xmlns="http://www.w3.org/2000/svg" xmlns:xlink="http://www.w3.org/1999/xlink" x="0px" y="0px"
	 viewBox="0 0 18 18" enable-background="new 0 0 18 18" xml:space="preserve">
<path fill="#A9ADA8" d="M17.707,16.293l-5-5c-0.037-0.037-0.084-0.053-0.124-0.083C13.469,10.038,14,8.583,14,7c0-3.866-3.134-7-7-7
	S0,3.134,0,7c0,3.866,3.134,7,7,7c1.583,0,3.038-0.531,4.21-1.417c0.03,0.041,0.046,0.088,0.083,0.124l5,5
	C16.488,17.902,16.744,18,17,18s0.512-0.098,0.707-0.293C18.098,17.316,18.098,16.684,17.707,16.293z M7,12c-2.761,0-5-2.239-5-5
	s2.239-5,5-5s5,2.239,5,5S9.761,12,7,12z"/>
</svg>
